<svg xmlns="http://www.w3.org/2000/svg" viewBox="0 0 139 32" shape-rendering="geometricPrecision">
<title>GO OUT</title>
<path fill="currentColor" d="M55.466 8.785c0-6.259-4.107-8.522-4.283-8.628-0.179-0.098-0.392-0.155-0.618-0.156h-18.296c-0.27 0.001-0.521 0.082-0.73 0.222l0.005-0.003c-2.005 1.368-3.429 3.461-3.899 5.894l-0.009 0.058c-0.703-4.458-3.338-5.952-3.47-6.018-0.179-0.097-0.391-0.153-0.617-0.153-0.007 0-0.015 0-0.022 0h-18.601c-0.27 0.001-0.521 0.082-0.73 0.222l0.005-0.003c-4.37 2.855-4.216 8.324-4.194 8.96v14.014c0 6.193 3.646 8.5 3.799 8.587 0.194 0.122 0.429 0.195 0.68 0.197h13.219c0.004 0 0.009 0 0.013 0 0.33 0 0.637-0.098 0.893-0.267l-0.006 0.004c0.217 0.164 0.492 0.263 0.79 0.263h7.401c0.001 0 0.002 0 0.004 0 0.728 0 1.318-0.59 1.318-1.318 0-0 0-0.001 0-0.001v0-3.095c0.684 1.79 1.9 3.248 3.452 4.218l0.036 0.021c0.178 0.096 0.39 0.153 0.615 0.153h18.299c0.27-0.001 0.521-0.082 0.73-0.222l-0.005 0.003c4.392-2.856 4.239-8.324 4.195-8.983zM15.775 13.002h10.718c0.002 0 0.004 0 0.007 0 0.335 0 0.641-0.125 0.873-0.331l-0.001 0.001v0.747c-0.155-0.070-0.336-0.11-0.527-0.11h-12.937c-0.007-0-0.015-0-0.023-0-0.191 0-0.372 0.041-0.536 0.114l0.008-0.003v-4.744c-0.004-0.038-0.007-0.082-0.007-0.126 0-0.231 0.068-0.446 0.185-0.625l-0.003 0.004c0.066-0.053 0.149-0.087 0.24-0.092l0.001-0h0.11c0.020-0.002 0.043-0.004 0.067-0.004 0.122 0 0.236 0.036 0.331 0.097l-0.002-0.001c0.097 0.157 0.155 0.347 0.155 0.551 0 0.023-0.001 0.045-0.002 0.067l0-0.003v3.141c0 0 0 0 0 0 0 0.728 0.59 1.318 1.318 1.318 0.008 0 0.015-0 0.023-0l-0.001 0zM27.481 30.659c0 0.364-0.295 0.659-0.659 0.659h-7.401c-0.283-0.003-0.523-0.183-0.614-0.435l-0.001-0.005-0.044-0.092c-0.593 0.527-0.918 0.527-1.055 0.527h-13.199c-0.005 0-0.010 0-0.016 0-0.124 0-0.240-0.034-0.339-0.094l0.003 0.002c-0.132-0.092-3.488-2.197-3.488-8.016v-14.047c-0.027-0.461-0.246-5.71 3.883-8.412 0.096-0.058 0.213-0.093 0.337-0.093 0.013 0 0.026 0 0.038 0.001l-0.002-0h18.602c0.114 0.005 0.219 0.039 0.310 0.093l-0.003-0.002c0.132 0.066 3.294 1.845 3.294 7.687v3.25c0 0.364-0.295 0.659-0.659 0.659v0h-10.695c-0.364 0-0.659-0.295-0.659-0.659v0-3.074c0.003-0.037 0.005-0.080 0.005-0.124 0-0.376-0.126-0.723-0.337-1l0.003 0.004c-0.201-0.193-0.474-0.312-0.776-0.312-0.036 0-0.072 0.002-0.107 0.005l0.005-0h-0.066c-0.009-0-0.021-0-0.032-0-0.274 0-0.524 0.100-0.717 0.265l0.001-0.001c-0.251 0.284-0.403 0.659-0.403 1.070 0 0.056 0.003 0.112 0.008 0.167l-0.001-0.007v13.924c0 0.175 0.044 1.845 1.383 1.845 0.019 0.001 0.041 0.002 0.063 0.002 0.515 0 0.952-0.339 1.098-0.806l0.002-0.008c0.114-0.286 0.186-0.616 0.197-0.962l0-0.005v-2.833h-1.536c-0.364 0-0.659-0.295-0.659-0.659v0-4.546c0-0.364 0.295-0.659 0.659-0.659v0h12.915c0.364 0 0.659 0.295 0.659 0.659v0zM13.359 22.6v-2.221c0.155 0.070 0.337 0.110 0.528 0.110 0.008 0 0.016-0 0.024-0l-0.001 0h0.9v2.152c0 0.044 0 1.142-0.725 1.142s-0.726-0.985-0.726-1.183zM50.916 31.21c-0.099 0.067-0.220 0.107-0.351 0.110h-18.322c-0.114-0.005-0.219-0.039-0.310-0.093l0.003 0.002c-0.153-0.092-3.953-2.175-3.953-8.038v-14.031c-0.022-0.459-0.241-5.71 3.887-8.412 0.099-0.067 0.220-0.107 0.351-0.110h18.3c0.114 0.005 0.219 0.039 0.310 0.093l-0.003-0.002c0.153 0.092 3.953 2.175 3.953 8.038v14.031c0.065 0.461 0.263 5.71-3.865 8.412zM137.624 0.001h-23.39c-0.236 0.218-0.553 0.351-0.9 0.351s-0.664-0.134-0.901-0.352l0.001 0.001h-10.695c-0.728 0-1.318 0.59-1.318 1.318v0 21.874c-0.009 0.215-0.082 0.412-0.199 0.574l0.002-0.003c-0.122 0.098-0.280 0.157-0.451 0.157-0.027 0-0.053-0.001-0.079-0.004l0.003 0c-0.025 0.003-0.054 0.004-0.083 0.004-0.166 0-0.320-0.051-0.447-0.138l0.003 0.002c-0.122-0.164-0.196-0.370-0.197-0.593v-0c0-0.007 0.001-0.014 0.001-0.022s-0-0.015-0.001-0.023l0 0.001v-21.83c-0.001-0.728-0.59-1.317-1.318-1.317-0 0-0.001 0-0.001 0h-10.695c-0.728 0-1.318 0.59-1.318 1.318v0 2.855c-0.705-1.691-1.883-3.067-3.369-3.999l-0.036-0.021c-0.178-0.096-0.390-0.153-0.615-0.153h-18.295c-0.27 0.001-0.521 0.082-0.730 0.222l0.005-0.003c-4.392 2.856-4.239 8.324-4.195 8.983v14.012c0 6.259 4.107 8.522 4.283 8.628 0.178 0.096 0.390 0.153 0.615 0.153h18.295c0.27-0.001 0.521-0.082 0.730-0.222l-0.005 0.003c1.819-1.223 3.152-3.049 3.720-5.187l0.014-0.063c0.578 2.247 1.958 4.106 3.808 5.293l0.035 0.021c0.178 0.096 0.390 0.153 0.615 0.153h18.295c0.225-0 0.437-0.057 0.622-0.157l-0.007 0.003c0.175-0.092 4.283-2.372 4.283-8.628v-12.342c0.143 0.058 0.309 0.092 0.483 0.092h5.073v19.696c0 0.728 0.59 1.318 1.318 1.318v0h10.717c0.728 0 1.318-0.59 1.318-1.318v0-19.699h5.029c0.728 0 1.318-0.59 1.318-1.318v0-8.324c-0-0.728-0.59-1.317-1.318-1.317-0.008 0-0.015 0-0.023 0l0.001-0zM81.971 31.21c-0.099 0.067-0.220 0.107-0.351 0.110h-18.295c-0.114-0.005-0.219-0.039-0.310-0.093l0.003 0.002c-0.153-0.092-3.953-2.175-3.953-8.038v-14.031c-0.022-0.459-0.241-5.71 3.887-8.412 0.099-0.067 0.220-0.107 0.351-0.110h18.295c0.114 0.005 0.219 0.039 0.310 0.093l-0.003-0.002c0.154 0.092 3.953 2.175 3.953 8.038v14.031c0.044 0.461 0.264 5.71-3.887 8.412zM113.088 23.194c0 5.864-3.777 7.951-3.953 8.038-0.088 0.053-0.193 0.087-0.306 0.092l-0.001 0h-18.29c-0.114-0.005-0.219-0.039-0.310-0.093l0.003 0.002c-0.154-0.092-3.953-2.175-3.953-8.038v-21.875c0-0.364 0.295-0.659 0.659-0.659v0h10.717c0.364 0 0.659 0.295 0.659 0.659v0 21.809c-0 0.007-0 0.015-0 0.023 0 0.401 0.141 0.768 0.376 1.056l-0.002-0.003c0.273 0.214 0.621 0.343 0.999 0.343s0.726-0.129 1.003-0.346l-0.004 0.003c0.233-0.285 0.374-0.652 0.374-1.052 0-0.008-0-0.016-0-0.025v0.001-21.809c0-0.364 0.295-0.659 0.659-0.659h10.717c0.364 0 0.659 0.295 0.659 0.659v0zM138.283 9.639c0 0.364-0.295 0.659-0.659 0.659v0h-5.691v20.361c0 0.364-0.295 0.659-0.659 0.659v0h-10.693c-0.364 0-0.659-0.295-0.659-0.659v0-20.358h-5.691c-0.364 0-0.659-0.295-0.659-0.659v0-8.324c0-0.364 0.295-0.659 0.659-0.659v0h23.39c0.364 0 0.659 0.295 0.659 0.659v0zM42.789 8.632c0-0.002 0-0.004 0-0.007 0-0.418-0.149-0.800-0.398-1.098l0.002 0.003c-0.266-0.211-0.607-0.338-0.978-0.338s-0.711 0.127-0.981 0.341l0.003-0.003c-0.246 0.295-0.396 0.677-0.396 1.095 0 0.002 0 0.004 0 0.007v-0 14.518c-0 0.007-0 0.015-0 0.023 0 0.401 0.141 0.768 0.376 1.056l-0.002-0.003c0.273 0.214 0.621 0.343 0.999 0.343s0.726-0.129 1.003-0.346l-0.004 0.003c0.233-0.285 0.374-0.652 0.374-1.052 0-0.008-0-0.016-0-0.025v0.001zM41.933 23.787c-0.123 0.098-0.280 0.157-0.451 0.157-0.027 0-0.053-0.001-0.079-0.004l0.003 0c-0.025 0.003-0.054 0.004-0.083 0.004-0.166 0-0.320-0.051-0.447-0.138l0.003 0.002c-0.122-0.164-0.196-0.370-0.197-0.593v-0c0-0.007 0.001-0.014 0.001-0.022s-0-0.015-0.001-0.023l0 0.001v-14.539c0.015-0.225 0.095-0.429 0.221-0.596l-0.002 0.003c0.120-0.097 0.274-0.156 0.442-0.156 0.022 0 0.044 0.001 0.066 0.003l-0.003-0c0.024-0.003 0.052-0.005 0.080-0.005 0.360 0 0.653 0.292 0.653 0.653 0 0.035-0.003 0.070-0.008 0.103l0.001-0.004q0 0.011 0 0.022v14.561c-0.013 0.208-0.085 0.397-0.199 0.554l0.002-0.003zM73.845 8.632c0-0.002 0-0.004 0-0.007 0-0.418-0.149-0.800-0.398-1.098l0.002 0.003c-0.266-0.211-0.607-0.338-0.977-0.338s-0.711 0.127-0.980 0.340l0.003-0.003c-0.246 0.295-0.396 0.677-0.396 1.095 0 0.002 0 0.005 0 0.007v-0 14.518c-0 0.007-0 0.015-0 0.023 0 0.400 0.141 0.768 0.376 1.055l-0.002-0.003c0.273 0.214 0.621 0.343 0.999 0.343s0.726-0.129 1.003-0.346l-0.004 0.003c0.233-0.285 0.374-0.652 0.374-1.053 0-0.008-0-0.016-0-0.024v0.001zM72.988 23.787c-0.123 0.098-0.280 0.157-0.451 0.157-0.027 0-0.053-0.001-0.079-0.004l0.003 0c-0.025 0.003-0.054 0.004-0.083 0.004-0.166 0-0.320-0.051-0.447-0.138l0.003 0.002c-0.122-0.164-0.196-0.370-0.197-0.593v-0c0-0.007 0.001-0.014 0.001-0.022s-0-0.015-0.001-0.023l0 0.001v-14.539c0.015-0.225 0.095-0.429 0.221-0.596l-0.002 0.003c0.120-0.097 0.274-0.156 0.442-0.156 0.022 0 0.044 0.001 0.066 0.003l-0.003-0c0.024-0.003 0.052-0.005 0.080-0.005 0.360 0 0.653 0.292 0.653 0.653 0 0.035-0.003 0.070-0.008 0.103l0.001-0.004q0 0.011 0 0.022v14.561c-0.013 0.208-0.085 0.397-0.199 0.554l0.002-0.003zM13.908 14.628h12.915v16.011h-7.402l-0.396-1.076s-0.918 1.076-1.318 1.076h-13.199s-3.184-1.911-3.184-7.445v-14.057s-0.352-5.227 3.605-7.819h18.599s2.943 1.604 2.943 7.116v3.25h-10.696v-3.008s0.175-2.130-1.867-2.130c0 0-1.845-0.197-1.845 2.152v13.925s0 2.504 2.042 2.504 2.042-2.460 2.042-2.460v-3.488h-2.240zM54.144 22.82s0.374 5.25-3.602 7.819h-18.294s-3.602-1.933-3.602-7.467v-14.057s-0.352-5.205 3.624-7.797h18.295s3.602 1.933 3.602 7.467zM43.448 23.128v-14.496c0.001-0.018 0.001-0.040 0.001-0.061 0-1.128-0.915-2.043-2.043-2.043s-2.043 0.915-2.043 2.043c0 0.022 0 0.043 0.001 0.064l-0-0.003v14.518c-0 0.015-0.001 0.032-0.001 0.049 0 1.128 0.915 2.043 2.043 2.043s2.043-0.915 2.043-2.043c0-0.025-0-0.050-0.001-0.075l0 0.004zM85.221 22.82s0.374 5.25-3.602 7.819h-18.295s-3.602-1.933-3.602-7.467v-14.057s-0.373-5.205 3.602-7.797h18.296s3.602 1.933 3.602 7.467zM74.526 23.128v-14.496c0.001-0.018 0.001-0.040 0.001-0.061 0-1.128-0.915-2.043-2.043-2.043s-2.043 0.915-2.043 2.043c0 0.022 0 0.043 0.001 0.064l-0-0.003v14.518c0.006 1.118 0.914 2.022 2.033 2.022 1.123 0 2.033-0.910 2.033-2.033 0-0.004 0-0.008-0-0.012v0.001zM101.76 23.128c0.001 0.018 0.001 0.040 0.001 0.061 0 1.128-0.915 2.043-2.043 2.043s-2.043-0.915-2.043-2.043c0-0.022 0-0.043 0.001-0.064l-0 0.003v-21.809h-10.718v21.875c0 5.535 3.602 7.467 3.602 7.467h18.295s3.602-1.933 3.602-7.467v-21.875h-10.717zM114.257 9.621h6.328v21.020h10.717v-20.999h6.347v-8.324h-23.416z"></path>
</svg>
